<svg width="30" height="30" viewBox="0 0 30 30" fill="none" xmlns="http://www.w3.org/2000/svg">
<path d="M15 0.833496C7.17998 0.833496 0.833313 7.18016 0.833313 15.0002C0.833313 22.8202 7.17998 29.1668 15 29.1668C22.82 29.1668 29.1666 22.8202 29.1666 15.0002C29.1666 7.18016 22.82 0.833496 15 0.833496ZM8.01581 23.8968C8.62498 22.6218 12.3366 21.3752 15 21.3752C17.6633 21.3752 21.3891 22.6218 21.9841 23.8968C20.0575 25.4268 17.635 26.3335 15 26.3335C12.365 26.3335 9.94248 25.4268 8.01581 23.8968ZM24.01 21.8427C21.9841 19.3777 17.0683 18.5418 15 18.5418C12.9316 18.5418 8.01581 19.3777 5.98998 21.8427C4.54498 19.9443 3.66665 17.5785 3.66665 15.0002C3.66665 8.75266 8.75248 3.66683 15 3.66683C21.2475 3.66683 26.3333 8.75266 26.3333 15.0002C26.3333 17.5785 25.455 19.9443 24.01 21.8427ZM15 6.50016C12.2516 6.50016 10.0416 8.71016 10.0416 11.4585C10.0416 14.2068 12.2516 16.4168 15 16.4168C17.7483 16.4168 19.9583 14.2068 19.9583 11.4585C19.9583 8.71016 17.7483 6.50016 15 6.50016ZM15 13.5835C13.8241 13.5835 12.875 12.6343 12.875 11.4585C12.875 10.2827 13.8241 9.3335 15 9.3335C16.1758 9.3335 17.125 10.2827 17.125 11.4585C17.125 12.6343 16.1758 13.5835 15 13.5835Z" fill="#F8F8F8"/>
</svg>
