<svg width="26" height="28" viewBox="0 0 26 28" fill="none" xmlns="http://www.w3.org/2000/svg">
<path d="M22.9067 15.3065C22.96 14.8798 23 14.4532 23 13.9998C23 13.5465 22.96 13.1198 22.9067 12.6932L25.72 10.4932C25.9734 10.2932 26.04 9.93317 25.88 9.63984L23.2134 5.0265C23.0934 4.81317 22.8667 4.69317 22.6267 4.69317C22.5467 4.69317 22.4667 4.7065 22.4 4.73317L19.08 6.0665C18.3867 5.53317 17.64 5.09317 16.8267 4.75984L16.32 1.2265C16.28 0.906504 16 0.666504 15.6667 0.666504H10.3334C10 0.666504 9.72003 0.906504 9.68003 1.2265L9.17336 4.75984C8.36003 5.09317 7.61336 5.5465 6.92003 6.0665L3.60003 4.73317C3.52003 4.7065 3.44003 4.69317 3.36003 4.69317C3.13336 4.69317 2.9067 4.81317 2.7867 5.0265L0.12003 9.63984C-0.0533034 9.93317 0.0266968 10.2932 0.28003 10.4932L3.09336 12.6932C3.04003 13.1198 3.00003 13.5598 3.00003 13.9998C3.00003 14.4398 3.04003 14.8798 3.09336 15.3065L0.28003 17.5065C0.0266968 17.7065 -0.03997 18.0665 0.12003 18.3598L2.7867 22.9732C2.9067 23.1865 3.13336 23.3065 3.37336 23.3065C3.45336 23.3065 3.53336 23.2932 3.60003 23.2665L6.92003 21.9332C7.61336 22.4665 8.36003 22.9065 9.17336 23.2398L9.68003 26.7732C9.72003 27.0932 10 27.3332 10.3334 27.3332H15.6667C16 27.3332 16.28 27.0932 16.32 26.7732L16.8267 23.2398C17.64 22.9065 18.3867 22.4532 19.08 21.9332L22.4 23.2665C22.48 23.2932 22.56 23.3065 22.64 23.3065C22.8667 23.3065 23.0934 23.1865 23.2134 22.9732L25.88 18.3598C26.04 18.0665 25.9734 17.7065 25.72 17.5065L22.9067 15.3065ZM20.2667 13.0265C20.32 13.4398 20.3334 13.7198 20.3334 13.9998C20.3334 14.2798 20.3067 14.5732 20.2667 14.9732L20.08 16.4798L21.2667 17.4132L22.7067 18.5332L21.7734 20.1465L20.08 19.4665L18.6934 18.9065L17.4934 19.8132C16.92 20.2398 16.3734 20.5598 15.8267 20.7865L14.4134 21.3598L14.2 22.8665L13.9334 24.6665H12.0667L11.8134 22.8665L11.6 21.3598L10.1867 20.7865C9.61336 20.5465 9.08003 20.2398 8.5467 19.8398L7.33336 18.9065L5.92003 19.4798L4.2267 20.1598L3.29336 18.5465L4.73336 17.4265L5.92003 16.4932L5.73336 14.9865C5.69336 14.5732 5.6667 14.2665 5.6667 13.9998C5.6667 13.7332 5.69336 13.4265 5.73336 13.0265L5.92003 11.5198L4.73336 10.5865L3.29336 9.46651L4.2267 7.85317L5.92003 8.53317L7.3067 9.09317L8.5067 8.1865C9.08003 7.75984 9.6267 7.43984 10.1734 7.21317L11.5867 6.63984L11.8 5.13317L12.0667 3.33317H13.92L14.1734 5.13317L14.3867 6.63984L15.8 7.21317C16.3734 7.45317 16.9067 7.75984 17.44 8.15984L18.6534 9.09317L20.0667 8.51984L21.76 7.83984L22.6934 9.45317L21.2667 10.5865L20.08 11.5198L20.2667 13.0265ZM13 8.6665C10.0534 8.6665 7.6667 11.0532 7.6667 13.9998C7.6667 16.9465 10.0534 19.3332 13 19.3332C15.9467 19.3332 18.3334 16.9465 18.3334 13.9998C18.3334 11.0532 15.9467 8.6665 13 8.6665ZM13 16.6665C11.5334 16.6665 10.3334 15.4665 10.3334 13.9998C10.3334 12.5332 11.5334 11.3332 13 11.3332C14.4667 11.3332 15.6667 12.5332 15.6667 13.9998C15.6667 15.4665 14.4667 16.6665 13 16.6665Z" fill="#F8F8F8"/>
</svg>
